<?xml version="1.0" encoding="utf-8"?>
<!-- Generator: Adobe Illustrator 21.1.0, SVG Export Plug-In . SVG Version: 6.00 Build 0)  -->
<svg version="1.1" id="Capa_1" xmlns="http://www.w3.org/2000/svg" xmlns:xlink="http://www.w3.org/1999/xlink" x="0px" y="0px"
	 viewBox="0 0 512 512" style="enable-background:new 0 0 512 512;" xml:space="preserve">
<style type="text/css">
	.st0{stroke:#000000;stroke-width:12;stroke-miterlimit:10;}
</style>
<g>
	<g>
		<g>
			<path d="M467,30h-15V15c0-8.3-6.7-15-15-15s-15,6.7-15,15v15h-61V15c0-8.3-6.7-15-15-15s-15,6.7-15,15v15h-60V15
				c0-8.3-6.7-15-15-15s-15,6.7-15,15v15h-61V15c0-8.3-6.7-15-15-15s-15,6.7-15,15v15H90V15c0-8.3-6.7-15-15-15S60,6.7,60,15v15H45
				C20.2,30,0,50.2,0,75v392c0,24.8,20.2,45,45,45h422c24.8,0,45-20.2,45-45V75C512,50.2,491.8,30,467,30z M482,467
				c0,8.3-6.7,15-15,15H45c-8.3,0-15-6.7-15-15v-15h452V467z M482,422H30V150h452V422z M482,120H30V75c0-8.3,6.7-15,15-15h15v15
				c0,8.3,6.7,15,15,15s15-6.7,15-15V60h60v15c0,8.3,6.7,15,15,15s15-6.7,15-15V60h61v15c0,8.3,6.7,15,15,15s15-6.7,15-15V60h60v15
				c0,8.3,6.7,15,15,15s15-6.7,15-15V60h61v15c0,8.3,6.7,15,15,15s15-6.7,15-15V60h15c8.3,0,15,6.7,15,15V120z"/>
		</g>
	</g>
</g>
<path class="st0" d="M335.5,268.9h-66.4v-66.4c0-7.2-5.9-13.1-13.1-13.1s-13.1,5.9-13.1,13.1v66.4h-66.4c-7.2,0-13.1,5.9-13.1,13.1
	s5.9,13.1,13.1,13.1h66.4v66.4c0,7.2,5.9,13.1,13.1,13.1s13.1-5.9,13.1-13.1v-66.4h66.4c7.2,0,13.1-5.9,13.1-13.1
	S342.7,268.9,335.5,268.9z"/>
</svg>
